<svg width="96" height="96" viewBox="0 0 96 96" fill="none" xmlns="http://www.w3.org/2000/svg">
<path d="M36.8135 15.9972L37.0017 15.9922L37.1847 15.997C37.2745 16.0022 37.3644 16.0115 37.4542 16.0251L37.5185 16.0403C37.8602 16.0952 38.1997 16.2173 38.5233 16.4089L38.7307 16.5431L59.012 30.8042L79.28 16.5565C81.1512 15.2413 83.686 16.4234 83.9776 18.5928L84.0056 19.0107V61.5408C84.0056 62.378 83.656 63.1704 83.0528 63.7336L82.7308 63.9952L60.7308 79.4608C59.6632 80.2112 58.3792 80.1484 57.4196 79.5532L37.0001 65.188L16.7214 79.4472C14.8505 80.7624 12.3156 79.5804 12.0238 77.4108L11.9961 76.9932V34.4629C11.9961 33.6256 12.3455 32.8333 12.9486 32.2702L13.2708 32.0086L35.2708 16.5431C35.5268 16.3631 35.7953 16.2299 36.0687 16.1396L36.5586 16.0276L36.8135 15.9972ZM78.0056 24.7868L62.0056 36.0344V71.2304L78.0056 59.9828V24.7868ZM33.9961 24.7734L17.9961 36.021V71.2168L33.9961 59.9692V24.7734ZM40.0056 24.7734V59.9692L56.0056 71.2168V36.021L40.0056 24.7734Z" fill="#212121"/>
</svg>
